<svg width="25" height="24" viewBox="0 0 25 24" fill="none" xmlns="http://www.w3.org/2000/svg">
<path fill-rule="evenodd" clip-rule="evenodd" d="M19.6632 6.93686C17.987 4.49847 15.2223 3 12.1978 3C7.1908 3 3.13205 7.05876 3.13205 12.0658C3.13205 12.4152 3.15591 12.7671 3.20286 13.1342C1.99392 14.4006 1.47143 15.6564 1.89563 16.7807C2.37584 18.0542 3.87652 18.6531 6.01231 18.6917C7.67639 20.2467 9.86733 21.1314 12.1981 21.1314C16.8808 21.1314 20.7581 17.5668 21.21 12.9601C22.7857 11.5228 23.5158 10.0846 23.0367 8.81233C22.6134 7.69079 21.3984 7.09292 19.6632 6.93686ZM18.9382 14.663L19.1979 14.4948L19.1675 14.5836L19.0869 14.797C17.9987 17.5498 15.3165 19.4831 12.1981 19.4831L11.9373 19.4785L11.6351 19.462C10.5317 19.379 9.47878 19.0531 8.53409 18.5159L8.58257 18.5095L9.01249 18.4422C10.602 18.1763 12.3318 17.7041 14.0688 17.049C15.8704 16.3704 17.5364 15.5489 18.9382 14.663ZM16.777 7.45382C15.5543 6.15736 13.8532 5.40747 12.0351 5.40747C11.605 5.40747 11.2563 5.75611 11.2563 6.18618C11.2563 6.61624 11.605 6.96488 12.0351 6.96488C13.4198 6.96488 14.7125 7.53476 15.644 8.52238C15.939 8.83526 16.4319 8.84968 16.7448 8.55461C17.0576 8.25953 17.0721 7.76669 16.777 7.45382Z" fill="#FA6650"/>
</svg>
