<svg width="160" height="47" viewBox="0 0 160 47" fill="none" xmlns="http://www.w3.org/2000/svg">
<path fill-rule="evenodd" clip-rule="evenodd" d="M4.90612 22.0677C4.90612 25.747 7.81883 28.7396 11.3983 28.7396C14.9782 28.7396 17.8906 25.747 17.8906 22.0677C17.8906 18.3883 14.9782 15.395 11.3983 15.395C7.81883 15.395 4.90612 18.3883 4.90612 22.0677ZM11.3983 10.3533C13.8096 10.3533 16.0466 11.1288 17.8906 12.4469V0H22.797V33.6709H17.8906V31.6881C16.0466 33.0061 13.8096 33.7816 11.3983 33.7816C5.11324 33.7816 0 28.5268 0 22.0677C0 15.6082 5.11324 10.3533 11.3983 10.3533ZM37.4025 28.7397C33.823 28.7397 30.9103 25.747 30.9103 22.0677C30.9103 18.3884 33.823 15.395 37.4025 15.395C40.982 15.395 43.8947 18.3884 43.8947 22.0677C43.8947 25.747 40.982 28.7397 37.4025 28.7397ZM37.4025 10.3534C31.1174 10.3534 26.0042 15.6082 26.0042 22.0677C26.0042 28.5268 31.1174 33.7817 37.4025 33.7817C43.6876 33.7817 48.8011 28.5268 48.8011 22.0677C48.8011 15.6082 43.6876 10.3534 37.4025 10.3534ZM116.503 28.7397C112.924 28.7397 110.011 25.747 110.011 22.0677C110.011 18.3884 112.924 15.395 116.503 15.395C120.083 15.395 122.995 18.3884 122.995 22.0677C122.995 25.747 120.083 28.7397 116.503 28.7397ZM116.503 10.3534C110.218 10.3534 105.105 15.6082 105.105 22.0677C105.105 28.5268 110.218 33.7817 116.503 33.7817C122.788 33.7817 127.902 28.5268 127.902 22.0677C127.902 15.6082 122.788 10.3534 116.503 10.3534ZM69.8986 22.0677C69.8986 25.747 66.9862 28.7397 63.406 28.7397C59.8259 28.7397 56.9138 25.747 56.9138 22.0677C56.9138 18.3884 59.8259 15.3951 63.406 15.3951C66.9862 15.3951 69.8986 18.3884 69.8986 22.0677ZM52.0077 22.0677C52.0077 28.5269 57.1206 33.7817 63.406 33.7817C69.6911 33.7817 74.805 28.5269 74.805 22.0677C74.805 19.5897 74.0501 17.2904 72.7672 15.3951H74.8064V10.3531H63.406C57.1206 10.3531 52.0077 15.6083 52.0077 22.0677ZM63.4029 41.0069C59.8227 41.0069 56.9106 38.0139 56.9106 34.3349H52.0042C52.0042 40.7944 57.1174 46.0492 63.4029 46.0492C69.688 46.0492 74.8019 40.7944 74.8019 34.3349H69.8954C69.8954 38.0139 66.983 41.0069 63.4029 41.0069ZM90.1994 28.7396C86.6199 28.7396 83.7072 25.747 83.7072 22.0677C83.7072 18.3883 86.6199 15.395 90.1994 15.395C93.7793 15.395 96.6917 18.3883 96.6917 22.0677C96.6917 25.747 93.7793 28.7396 90.1994 28.7396ZM96.6917 12.4469C94.8477 11.1288 92.6107 10.3533 90.1994 10.3533C83.9143 10.3533 78.8011 15.6082 78.8011 22.0677C78.8011 28.5268 83.9143 33.7816 90.1994 33.7816C92.6107 33.7816 94.8477 33.0061 96.6917 31.6881V33.6709H101.598V0H96.6917V12.4469ZM145.772 12.8593C147.282 11.3117 149.363 10.3533 151.659 10.3533C156.259 10.3533 160 14.1981 160 18.9247V33.7832H155.094V18.9247C155.094 16.9786 153.553 15.3952 151.659 15.3952C149.766 15.3952 148.225 16.9786 148.225 18.9247V33.7832H143.319V18.9247C143.319 16.9786 141.778 15.3952 139.885 15.3952C137.991 15.3952 136.45 16.9786 136.45 18.9247V33.7832H131.544V18.9247C131.544 14.1981 135.285 10.3533 139.885 10.3533C142.18 10.3533 144.262 11.3117 145.772 12.8593Z" fill="white"/>
</svg>
