<svg width="150" height="53" viewBox="0 0 150 53" fill="none" xmlns="http://www.w3.org/2000/svg">
<path fill-rule="evenodd" clip-rule="evenodd" d="M14.6863 25.7313C14.6863 28.6865 17.0257 31.0901 19.9007 31.0901C22.776 31.0901 25.1151 28.6865 25.1151 25.7313C25.1151 22.7762 22.776 20.372 19.9007 20.372C17.0257 20.372 14.6863 22.7762 14.6863 25.7313ZM19.9007 16.3227C21.8374 16.3227 23.6341 16.9455 25.1151 18.0042V8.00708H29.0559V35.0508H25.1151V33.4582C23.6341 34.5169 21.8374 35.1397 19.9007 35.1397C14.8527 35.1397 10.7458 30.9192 10.7458 25.7313C10.7458 20.5432 14.8527 16.3227 19.9007 16.3227ZM40.7867 31.0902C37.9117 31.0902 35.5723 28.6866 35.5723 25.7314C35.5723 22.7763 37.9117 20.3721 40.7867 20.3721C43.6616 20.3721 46.0011 22.7763 46.0011 25.7314C46.0011 28.6866 43.6616 31.0902 40.7867 31.0902ZM40.7867 16.3228C35.7386 16.3228 31.6318 20.5433 31.6318 25.7314C31.6318 30.9193 35.7386 35.1398 40.7867 35.1398C45.8347 35.1398 49.9418 30.9193 49.9418 25.7314C49.9418 20.5433 45.8347 16.3228 40.7867 16.3228ZM104.318 31.0902C101.443 31.0902 99.104 28.6866 99.104 25.7314C99.104 22.7763 101.443 20.3721 104.318 20.3721C107.194 20.3721 109.533 22.7763 109.533 25.7314C109.533 28.6866 107.194 31.0902 104.318 31.0902ZM104.318 16.3228C99.2704 16.3228 95.1636 20.5433 95.1636 25.7314C95.1636 30.9193 99.2704 35.1398 104.318 35.1398C109.367 35.1398 113.474 30.9193 113.474 25.7314C113.474 20.5433 109.367 16.3228 104.318 16.3228ZM66.8868 25.7315C66.8868 28.6866 64.5476 31.0903 61.6721 31.0903C58.7966 31.0903 56.4577 28.6866 56.4577 25.7315C56.4577 22.7763 58.7966 20.3721 61.6721 20.3721C64.5476 20.3721 66.8868 22.7763 66.8868 25.7315ZM52.5173 25.7315C52.5173 30.9193 56.6238 35.1399 61.6721 35.1399C66.7202 35.1399 70.8275 30.9193 70.8275 25.7315C70.8275 23.7411 70.2212 21.8944 69.1908 20.3721H70.8286V16.3225H61.6721C56.6238 16.3225 52.5173 20.5434 52.5173 25.7315ZM61.6696 40.943C58.7941 40.943 56.4552 38.5391 56.4552 35.5842H52.5144C52.5144 40.7723 56.6213 44.9929 61.6696 44.9929C66.7176 44.9929 70.825 40.7723 70.825 35.5842H66.8843C66.8843 38.5391 64.5451 40.943 61.6696 40.943ZM83.192 31.0902C80.317 31.0902 77.9776 28.6865 77.9776 25.7314C77.9776 22.7762 80.317 20.372 83.192 20.372C86.0672 20.372 88.4064 22.7762 88.4064 25.7314C88.4064 28.6865 86.0672 31.0902 83.192 31.0902ZM88.4064 18.0042C86.9254 16.9456 85.1287 16.3227 83.192 16.3227C78.1439 16.3227 74.0371 20.5433 74.0371 25.7314C74.0371 30.9192 78.1439 35.1398 83.192 35.1398C85.1287 35.1398 86.9254 34.5169 88.4064 33.4583V35.0509H92.3471V8.00712H88.4064V18.0042ZM127.826 18.3354C129.039 17.0924 130.711 16.3226 132.555 16.3226C136.249 16.3226 139.254 19.4107 139.254 23.207V35.1411H135.314V23.207C135.314 21.644 134.076 20.3722 132.555 20.3722C131.034 20.3722 129.797 21.644 129.797 23.207V35.1411H125.856V23.207C125.856 21.644 124.619 20.3722 123.098 20.3722C121.577 20.3722 120.339 21.644 120.339 23.207V35.1411H116.399V23.207C116.399 19.4107 119.404 16.3226 123.098 16.3226C124.942 16.3226 126.614 17.0924 127.826 18.3354Z" fill="#FA6650"/>
</svg>
