<svg width="24" height="24" viewBox="0 0 24 24" fill="none" xmlns="http://www.w3.org/2000/svg">
<path fill-rule="evenodd" clip-rule="evenodd" d="M19.4514 10.2222V19.1373C19.4514 19.6896 19.0037 20.1373 18.4514 20.1373H5.54855C4.99627 20.1373 4.54855 19.6896 4.54855 19.1373V10.2232C4.54855 9.59513 4.84355 9.00358 5.34518 8.6257L11.4013 4.06357C11.7577 3.79513 12.2487 3.79522 12.605 4.0638L18.6554 8.62521C19.1567 9.00312 19.4514 9.59446 19.4514 10.2222ZM2.54855 10.2232C2.54855 8.9671 3.13855 7.78399 4.1418 7.02824L10.1979 2.46611C11.267 1.66078 12.7402 1.66106 13.809 2.4668L19.8594 7.0282C20.8619 7.78402 21.4514 8.96669 21.4514 10.2222V19.1373C21.4514 20.7941 20.1083 22.1373 18.4514 22.1373H5.54855C3.8917 22.1373 2.54855 20.7941 2.54855 19.1373V10.2232ZM10.6231 14.4474C10.1821 14.1149 9.5551 14.2027 9.22251 14.6436C8.88993 15.0845 8.97775 15.7116 9.41866 16.0441C10.1671 16.6087 11.1047 16.8643 12 16.8643C12.8953 16.8643 13.8329 16.6087 14.5813 16.0441C15.0223 15.7116 15.1101 15.0845 14.7775 14.6436C14.4449 14.2027 13.8179 14.1149 13.3769 14.4474C13.032 14.7076 12.5372 14.8643 12 14.8643C11.4628 14.8643 10.968 14.7076 10.6231 14.4474Z" fill="black" fill-opacity="0.85"/>
</svg>
