<svg width="25" height="24" viewBox="0 0 25 24" fill="none" xmlns="http://www.w3.org/2000/svg">
<path fill-rule="evenodd" clip-rule="evenodd" d="M10.9429 2.1438C17.8158 1.02121 23.7199 6.63022 23.0982 13.4266C22.6553 18.2715 18.7858 22.2543 13.9516 22.8196C12.0511 23.042 10.2314 22.752 8.61639 22.066L8.615 22.0654C8.45438 21.9969 8.30891 21.9666 8.17976 21.9666H5.68315C4.40418 21.9666 3.36741 20.9299 3.36741 19.6509V17.3855C3.36741 17.2407 3.33053 17.0796 3.2479 16.906L3.24659 16.9032C2.3686 15.0436 2.02253 12.887 2.40331 10.6346C3.13433 6.31461 6.61849 2.84952 10.9429 2.1438ZM10.0862 15.1813C10.4768 14.7908 11.1099 14.7908 11.5005 15.1813C12.1614 15.8423 13.2321 15.8423 13.8931 15.1813C14.2836 14.7908 14.9168 14.7908 15.3073 15.1813C15.6978 15.5718 15.6978 16.205 15.3073 16.5955C13.8653 18.0375 11.5283 18.0375 10.0862 16.5955C9.69571 16.205 9.69571 15.5718 10.0862 15.1813Z" fill="#FA6650"/>
</svg>
