<svg width="24" height="24" viewBox="0 0 24 24" fill="none" xmlns="http://www.w3.org/2000/svg">
<path fill-rule="evenodd" clip-rule="evenodd" d="M11.9997 1.7832C8.49605 1.7832 5.65518 4.62274 5.65518 8.1268C5.65518 11.6306 8.49583 14.4713 11.9997 14.4713C15.5035 14.4713 18.3442 11.6306 18.3442 8.1268V2.7832C18.3442 2.23092 17.8964 1.7832 17.3442 1.7832H11.9997ZM8.19067 15.587C5.04357 15.587 2.42184 17.9965 2.15592 21.1317C2.13227 21.4106 2.22659 21.6867 2.41597 21.8928C2.60534 22.0989 2.87244 22.2162 3.15235 22.2162H20.8474C21.1273 22.2162 21.3944 22.0989 21.5837 21.8928C21.7731 21.6867 21.8674 21.4106 21.8438 21.1317C21.5779 17.9964 18.9551 15.587 15.809 15.587H8.19067ZM11.5451 9.27068C11.1546 8.88015 10.5215 8.88015 10.1309 9.27068C9.74041 9.6612 9.74041 10.2944 10.1309 10.6849C11.2207 11.7746 12.9875 11.7746 14.0772 10.6849C14.4678 10.2944 14.4678 9.6612 14.0772 9.27068C13.6867 8.88015 13.0535 8.88015 12.663 9.27068C12.3543 9.57937 11.8538 9.57937 11.5451 9.27068Z" fill="#FA6650"/>
</svg>
